<svg width="1009" height="759" viewBox="0 0 1009 759" fill="none" xmlns="http://www.w3.org/2000/svg">
<path d="M509.538 108.234C550.546 97.7755 627.197 41.3381 661.5 0.5L983 19L994.954 79.0995C1029.13 174.347 993.012 124.669 970.489 212.819C947.965 300.97 930.491 272.956 901.754 328.237C873.017 383.517 850.494 424.978 812.437 478.391C774.381 531.804 755.553 553.303 718.849 588.206C684.676 620.702 629.533 664.777 585.263 690.55C546.197 713.294 441.58 748.819 382.165 756.663C337.282 762.588 121.206 756.663 98.294 745.457C69.5632 731.406 34.6802 698.02 18.2974 657.68C-5.5183 599.038 -1.54699 491.091 5.09409 447.016C8.97742 421.243 59.865 299.376 134.409 249.424C216.347 194.517 252.462 209.084 315.372 179.576C378.282 150.068 458.278 121.307 509.538 108.234Z" fill="#F2FFEC"/>
<path d="M684.298 88.3364C734.526 50.533 686 40 816.5 19C855 12.8046 917.372 19.6166 912.076 53.153C906.781 86.6895 886.768 136.495 877.423 157.206C862.887 207.361 827.74 317.627 803.444 357.451C777.356 384.4 664.83 493.319 644.973 513.905C625.115 534.491 510.642 601.863 469.369 616.461C428.097 631.058 321.801 635.175 276.245 616.461C230.689 597.746 178.515 532.994 169.949 493.319C161.383 453.644 182.798 391.138 200.319 357.451C217.84 323.765 241.592 328.257 302.332 307.671C363.073 287.085 519.208 199.126 595.134 142.609C671.06 86.0906 634.07 126.14 684.298 88.3364Z" fill="#E1FFD3"/>
</svg>
